<?xml version="1.0" encoding="utf-8"?>
<!-- Generator: Adobe Illustrator 24.1.1, SVG Export Plug-In . SVG Version: 6.00 Build 0)  -->
<svg version="1.1" id="Layer_1" xmlns="http://www.w3.org/2000/svg" xmlns:xlink="http://www.w3.org/1999/xlink" x="0px" y="0px"
	 viewBox="0 0 512 512" style="enable-background:new 0 0 512 512;" xml:space="preserve">
<g>
	<path d="M350.6,172.2l-0.1-1.1l-1.8,0.2l0.2,1.1L350.6,172.2z M362.6,201.1v0.6l1.2-0.2l0.4-1.8l-0.1-1.1
		C363.6,198.8,363.1,199.6,362.6,201.1z M315.8,237.4c-0.1-1-3.3-5-9.6-12c-0.1-1.3,2-3.3,6.5-5.7l12.7-11.1c2.8-3.6,4.5-9.4,5-17.6
		l-0.2-1.8c-0.5-5.6-4.6-10.1-12.3-13.6c-4.6-3.1-12.8-4.8-24.6-5.1c-9.8,0.8-22.6,4.3-38.3,10.5c-4.8,3.4-9.7,6.5-14.8,9.3l0.1,1
		l1.5-0.7l1,0.8l1-0.5l0.4-0.1v0.5c0.1,0.4-3.3,3.2-10.3,8l0.5,0.9l-0.4,0.1l-1.2-0.4l-1.4,0.6l0.1,0.5l1.1,1.3l-1.6-0.3
		c-1.8,0.3-3.5,1.2-4.7,2.5l0.6-2.8c2.3-10,3.9-18.8,4.8-26.5l-0.1-0.5c-1.7-1.2-3.3-2.6-4.6-4.3v-2.1l-0.1-0.4l-0.5,0.2
		c-5,7.5-14.7,20.3-28.9,38.4c-10.9,12.9-16.5,20.1-16.8,21.6c-4.5,4.6-6.6,7.3-6.3,8.3l-1.5,2.3l-0.7-0.4c-1.9,3.1-4.9,5.2-8.4,5.9
		l-4,0.9l-0.8,1.2l0.2,0.4l1.4-0.3l0.1,0.4l-3.3,1.3l-5.9,1.3l-3.1,0.3l1.3,0.2l-3.8,0.9c-2.4,0.6-3.7,0.3-3.9-0.6l-0.4,0.1v1
		l-0.2-0.9l-3.2,0.7c-0.2-1.4-4.4-6.7-12.6-15.7c-0.2-1.8,2.8-4.3,8.6-7.6l16.7-14.7c3.7-4.8,5.9-12.4,6.6-22.9l-0.2-2.5
		c-0.7-7.4-6.1-13.4-16.2-18c-6-4.1-16.8-6.3-32.3-6.6c-12.9,1.1-29.7,5.7-50.5,13.7c-6.3,4.5-12.8,8.6-19.4,12.3l0.1,1.3l1.9-0.8
		l1.4,1.1l1.3-0.8l0.7-0.1v0.7c0.1,0.6-4.5,4.1-13.6,10.6l0.8,1.1l-0.7,0.1l-1.4-0.5l-1.9,0.8l0.1,0.7l1.5,1.7l-2.1-0.4
		c-2.9,0.3-5.8,2.4-8.7,6.4l0.8,1.2c2.4-2.3,3.9-3.4,4.3-3.5l0.1,1.9l-1.9,0.8l1.6,2.3c2.9-3.2,6.3-6,9.9-8.3
		c1.7,0.5,2.8,1.1,2.8,1.7l1.3-0.1c9.8-7.3,19.5-12.5,29.1-15.7l0.1,1.3c-1.7,2.7-2.9,4-3.6,4.1l0.9,2.3c0.2,1.7-4.3,12.7-13.1,33
		c-20,47.3-36.8,82.3-50.6,104.8l0.8,1.8c3.3-0.8,5.5-1.6,6.4-2.4l0.7-0.1l0.2,1.3l1.3-0.2l1.3-0.7l1.3,0.5l0.1,1.3
		c0.2,1.3-0.6,3.2-2.1,5.7c-1.4,1.6-2.8,4.8-4.4,9.8l0.1,0.6l1.2-0.1c5.4-6.2,9.6-12.1,12.4-17.9c15.9-4.8,28.1-9.3,36.5-13.8
		c8.4-0.7,14.9-2.9,19.3-6.7l-0.1-0.7l-3.3,1l-0.7,0.1l-0.1-0.8c6.2-0.9,10.5-2.3,12.8-4.2c12.2-9.3,21.3-15.9,27.5-19.8
		c12.7-9.3,20.9-18.4,24.8-27.3l2.1-0.5c1.8,0,2.8-0.1,3-0.2l0.5-0.6c2.8-0.3,1.4,0.2,3.3-0.3l4.8-1.1l-0.3,0.5l0.8-0.4l-0.4-0.1
		l0.8-0.2l-0.4,0.2l1.7-0.1l0.3,1.4l-21.7,34.6l-4.8,6l-2.4,7.9l0.5-0.2l2.3-0.9l-0.8,3l0.3,0.9l0.6,0.8l-0.3,0.6l0.2,0.5l0.9-0.2
		c1.5-1.3,2.1-2.4,1.8-3.5l3.2,0.3l0.1,0.5l-1.5,2.3l0.1,0.4l0.5-0.1c7.9-8.6,27.3-38.1,42.8-58.1c-0.5-2.2,7.6-5.2,24.3-9l0.5-0.2
		c0.7,2.7-0.7,9-3.8,19c-2.1,6.1-3.1,9.4-2.9,10c-2.7,8.1-3.9,12.4-3.8,13.1l-5.9,19.4c-3.8,9.9-6.8,20.3-8.8,31.3l1.6,0.2l0.8-0.8
		l0.7,0.4l-0.3-1.4l2.6-0.1c0.8-0.2,1.4-1.1,1.9-2.8c-0.1-2.7,0.4-4.1,1.6-4.3c1.6-6.3,2.6-9.3,2.9-9.5c1.5-6.2,2.6-9.7,3.3-10.6
		c2.3-8,3.8-12.2,4.9-12.4l0.2,1l-1.6,4.2c-2.8,12.7-5.7,22.7-8.7,30l0.8,3.6l0.6-0.1c7-15.2,17.2-45.3,30.4-90.2
		c0.3-3.8,2.4-7.2,5.7-9.2l-0.8-0.8l-0.1-0.4c1.5-0.3,2.6-0.9,3.2-1.7c-0.1-0.3-1.4-0.8-4-1.5l6.7-28.3l2.5-1.9l0.1,1.4l-1.5,0.6
		l1.2,1.8c2.3-2.4,4.8-4.6,7.5-6.4l2.1,1.3l1-0.1c6.7-5.1,14.2-9.1,22.1-11.8l0.1,0.9c-1.3,2.1-2.2,3.1-2.7,3.1l0.6,1.8
		c0.1,1.3-3.2,9.6-9.8,25.1c-15.3,35.8-28,62.4-38.4,79.6l0.7,1.4c2.6-0.6,4.2-1.3,4.8-1.8l0.4-0.1l0.1,1l1.1-0.1l1-0.5l1,0.3l0.1,1
		c0.1,0.9-0.5,2.4-1.7,4.3c-1.1,1.2-2.3,3.7-3.4,7.4v0.5l1-0.1c3.7-4.1,6.9-8.7,9.4-13.7c12.2-3.6,21.3-7,27.7-10.4
		c6.5-0.6,11.3-2.3,14.8-5.1l-0.1-0.5l-2.5,0.8h-0.5l-0.1-0.4c4.8-0.8,8-1.7,9.8-3.2c9.2-7.1,16.1-12.2,20.8-15.1
		C309.8,257.5,316.6,247.3,315.8,237.4L315.8,237.4z M313.3,238l0.3,3.8l-1.3,1.5l-0.6-6.6L313.3,238L313.3,238z M26,207.2h-0.6
		l-0.2-1.2l2.7-0.3v0.7L26,207.2L26,207.2z M13.3,335.1l-4.1-0.8l-0.1-1.8l1.2-1.4l1.4,1.7c2.3-2.7,3.4-4.1,3.7-4.1l1.4,0.6
		C16.3,332.9,15.1,334.9,13.3,335.1L13.3,335.1z M149.8,192.1c-0.6,0.1-1.9-1.9-3.8-5.9L146,185c1.2-0.1,2.4,1.9,3.7,5.9
		L149.8,192.1z M148.1,178l-0.6,1.3l-18.5-7.7C141.3,172,147.8,174,148.1,178L148.1,178z M69.7,245.3l-2.6,0.2l-0.1-1.2l2.6-0.2
		L69.7,245.3z M67.6,204.9l0.6-0.1l0.2,1.9c-0.6,0-1.3,0.9-2.3,2.7l-0.1-1.3L67.6,204.9L67.6,204.9z M62.1,217.9l0.3,2.4l-0.7,0.1
		l-0.3-2.5H62.1z M59.2,222.5l1.3-0.1c-0.2,2-0.8,3.2-1.7,3.2l-0.7,0.1L59.2,222.5z M57.1,229l0.7-0.1l0.1,0.6l-1.3,2l-1.3,0.1V231
		L57.1,229L57.1,229z M54.9,234.7l-0.4,3.2h-0.6l-0.3-3.1L54.9,234.7z M33.6,295.2c-0.8,4.3-1.7,6.4-2.7,6.5v-0.6
		C30.7,299.1,31.6,297.1,33.6,295.2z M29.7,303.7v0.6l-1.2,1.3V305L29.7,303.7z M28.6,321.3l2-0.3l0.1,0.7l-2,0.8l-1.3,0.1
		L28.6,321.3z M84.8,304c-11.1,5.4-17.7,9.2-19.6,11.1c-12,4.2-17.9,6.8-17.8,7.7c-10.7,4.3-17.7,7.3-21,9.3l-3.5-0.8
		c-0.2-2.2,0.8-3.9,2.9-5.3c1.8-0.2,3.7,0.1,5.3,0.8c3.3-1.5,6.8-2.7,10.3-3.4l-0.2-1.3l-3.9,0.3c0.5-0.7,4.3-2.5,11.4-5.3l2-0.3
		v0.7c-3.3,0.3-5.2,1.3-5.7,3.1l1.4,1c2.6-1.6,3.8-2.5,3.8-2.8c4.8-0.9,18.1-7.9,39.9-20.9l0.2,1.2C90.3,299.6,88.5,301.2,84.8,304
		L84.8,304z M51.3,315c3.1-0.3,6-1.6,8.2-3.8l1.5,1.1c-1.6,0.2-4.6,1.4-8.9,3.9l-0.7,0.1L51.3,315z M105.3,273.5l-16.8,13.3
		c-12.4,8.2-19.1,12.3-20,12.3c-19.8,10.8-32.2,16.5-37,16.9l-0.7,0.1c0.6-2.2,9.4-20.3,26.4-54.2c7.6-0.7,19.4-4.2,35.5-10.5
		l3.9-0.3c8.2-0.8,14.3,0.8,18.3,4.7l0.3,2.5C112.2,266.9,108.8,272,105.3,273.5z M72.5,255.1l2.8-0.3v0.7l-2.7,0.2L72.5,255.1z
		 M110.4,248.6l1.9-0.2c1.8,0.8,2.8,1.6,2.8,2.3l0.1,0.6C113.5,251.5,111.8,250.6,110.4,248.6z M115.7,218.1
		c-1.7,2.1-6.6,5.7-14.3,10.7c-2.6,0.3-12.2,4-28.8,11.3l-2.7-0.4l-0.1-1.2c-0.3-2.4,0.8-5.4,3.2-9.1c1.3-6.8,2.8-10.8,4.3-11.7
		l13.9-31.2c-0.2-1.9,2.8-3.4,8.8-4.4l2-0.3l0.2,1.8c5.9-0.9,9.7-1.4,11.1-1.6c11-0.9,16.8,1.3,17.2,6.7l1.3-0.1l-0.3-3.2l1.4-0.1
		c3.2,1.8,4.9,3.9,5.2,6.4c0.2,1.7-0.8,3.9-2.8,6.5l-1.4-1.7l-1.3,0.2l-0.3,3.8c-5.6,8.3-9.6,12.7-12.2,12.9
		C117.7,216.5,116.3,218.1,115.7,218.1L115.7,218.1z M124.3,240l-2.8-1.1l-0.2-1.8l1.3-0.1l2.8,1.6L124.3,240z M133,250.4l2.1,1.6
		l-0.6,0.1l0.1,0.1l-0.4,0.1l-0.9,0.7L133,250.4z M133.8,255.6l-0.1-0.5l1.6-0.3l0.1,0.5L133.8,255.6z M137.7,260
		c1.7-0.3,2.4-0.4,5.5-1.1l0.1,0.5l-5.7,1.3L137.7,260L137.7,260z M143.3,262.3c-2.5,0.3-1.9-0.1-5.8,0.8l-0.1-0.5l4.8-1.6l2.3-0.5
		l0.2,0.9L143.3,262.3L143.3,262.3z M148.4,261.1l-1.2-0.8l1.5-0.3l1.2,0.8L148.4,261.1z M162.3,246.1l-0.2-0.4l2.4-0.6l0.3,0.9
		L162.3,246.1z M177.2,337.1l0.1-1.5l0.5-0.1l1.3,0.7l0.1,0.5L177.2,337.1z M187.5,250l-1-0.2l-4.3,1.4l-1,0.3l-1.2-0.7l6.9-1.6
		l2.3-1.1l0.8,0.8L187.5,250L187.5,250z M192.8,248.4l-0.1-0.5l1.3-0.8l4.9-1.2l0.1,0.5C196.5,247.1,194.4,247.6,192.8,248.4
		L192.8,248.4z M193.7,238.4l-1.4,0.8h-2c-0.3-1,3.4-2.3,10.9-4.1l1.1-0.2l0.3,0.9C197.2,237.4,194.2,238.3,193.7,238.4z M206.9,224
		c-0.5,6-2.7,9.4-6.4,10.3l-0.1-0.5l-3.3,1.2l-1.5,0.3h-2.1l-0.3-1.3c-0.1-0.5,4.7-7.2,14.5-20l1.1,0.3
		C209.3,216.1,208.7,219.3,206.9,224L206.9,224z M230.4,204H230l-0.2-0.9l2-0.3l0.1,0.5L230.4,204z M220.8,301.1l-3.1-0.8l-0.1-1.4
		l0.9-1l1.1,1.3l2.8-3.1l1,0.4C223,299.4,222.1,300.9,220.8,301.1L220.8,301.1z M324.5,192.6c-0.5,0-1.5-1.5-3-4.6l-0.1-0.9
		c1-0.1,2,1.4,2.9,4.4L324.5,192.6z M323.1,181.7l-0.4,1l-14.1-5.8C318,177.1,322.9,178.8,323.1,181.7z M263.6,232.9l-2,0.2
		l-0.1-0.9l2-0.2L263.6,232.9z M261.9,202.1h0.6l0.1,1.4l-1.8,2.1l-0.1-1L261.9,202.1L261.9,202.1z M257.8,212l0.2,1.8h-0.6
		l-0.2-1.8H257.8z M255.6,215.6l1-0.1c-0.2,1.6-0.6,2.4-1.3,2.5l-0.6,0.1L255.6,215.6z M254,220.4h0.4l0.1,0.5l-0.9,1.5l-1,0.1V222
		L254,220.4z M252.3,224.8l-0.3,2.4l-0.4,0.1l-0.3-2.4L252.3,224.8z M236.2,270.8c-0.7,3.3-1.3,4.8-2,4.9l-0.1-0.4
		C234,273.7,234.7,272.2,236.2,270.8z M233.2,277.2l0.1,0.4l-0.9,1.1l-0.1-0.5L233.2,277.2z M232.3,290.5l1.5-0.1l0.1,0.5l-1.5,0.6
		l-1,0.1L232.3,290.5L232.3,290.5z M274.9,277.5c-8.3,4.1-13.3,6.9-14.8,8.3c-9.1,3.3-13.6,5.2-13.6,6c-8,3.2-13.3,5.5-15.8,7
		l-2.7-0.8c-0.2-1.6,0.7-2.9,2.3-3.9l4,0.6c1.6-0.8,4.2-1.6,7.9-2.5l-0.1-1l-3.2,0.3c0.4-0.5,3.3-1.9,8.8-4.1l1.5-0.1l0.1,0.4
		c-2.6,0.2-4.1,0.9-4.3,2.3l1.1,0.8c1.8-1.3,2.8-2,2.8-2.3c3.7-0.6,13.7-5.9,30.3-15.8l0.1,0.9C279.3,274.1,277.8,275.3,274.9,277.5
		L274.9,277.5z M249.5,285.8c2.4-0.3,4.7-1.2,6.3-2.8l1.1,0.8c-1.2,0.1-3.4,1-6.8,2.8l-0.6,0.1L249.5,285.8z M290.6,254.2
		l-12.7,10.2c-9.4,6.3-14.5,9.3-15.3,9.4c-15,8.3-24.3,12.6-28.1,12.8l-0.5,0.1c0.5-1.7,7.2-15.4,20.2-41.2c5.7-0.5,14.6-3.2,26.9-8
		l3.1-0.3c6.2-0.5,10.8,0.8,13.8,3.7l0.2,1.8C295.8,249.2,293.3,253,290.6,254.2z M265.7,240.3l2-0.2l0.1,0.4l-2,0.3L265.7,240.3z
		 M294.5,235.4l1.5-0.1l2.2,1.7l0.1,0.4C296.9,237.6,295.7,236.9,294.5,235.4z M298.5,212.3c-1.3,1.6-4.9,4.3-10.8,8.1
		c-2,0.3-9.3,3-21.8,8.5l-2-0.3l-0.1-1c-0.2-1.7,0.6-4.1,2.3-6.8c1-5.2,2.1-8.2,3.3-8.8l10.6-23.7c-0.1-1.4,2.2-2.6,6.7-3.4l1.5-0.2
		l0.2,1.5c4.4-0.8,7.2-1.2,8.4-1.3c8.3-0.7,12.7,1,13,5.1l1-0.1l-0.2-2.3l1-0.1c2.4,1.3,3.7,2.9,3.8,4.8c0.1,1.3-0.6,3-2,4.9
		l-1.1-1.3l-1,0.1l-0.3,2.8c-4.2,6.4-7.3,9.7-9.2,9.8C300,211.1,298.9,212.2,298.5,212.3L298.5,212.3z M302.9,228l-0.1-1.4l0.9-0.1
		l2.2,1.2l-0.9,1.1L302.9,228z M126.3,320.2l-1,0.3l-0.8,0.8l1.2,0.7l0.8-1.2L126.3,320.2z M122.5,312.7l0.2,0.5l0.8-1.1l-0.1-0.5
		L122.5,312.7z M149.3,249.2l1.2-0.3l-0.3-1l-1.2,0.3L149.3,249.2z M493.5,278.1c-11.5,2.6-12.9,2.1-15.4,2.3l0.1,0.9l1.1-0.1h0.6
		l-0.2-0.2l1.3-0.5c11.3-1.3,12.7-0.8,12.6-2.1L493.5,278.1z M431.4,286.4l0.1,0.9h0.2l-0.1-0.9H431.4z M424.3,261.3l-1-0.3l-1.3,4
		l0.1,0.4C422.9,265.3,423.6,264,424.3,261.3L424.3,261.3z M495.8,277.9l0.1,1l1.7,0.3l-0.1-1L495.8,277.9z M417.3,287.6l-2.5-0.3
		l-0.5,1l0.1,0.5l15.3-1.3l-0.1-0.9L417.3,287.6z M410.4,253.9l-0.1-0.5l-0.5,0.1l-1,0.6l0.6,0.9L410.4,253.9L410.4,253.9z
		 M503.2,271l0.8-0.1l0.5-1L504,269c-2.1,0-4.1,0.5-5.9,1.5L498,270l-3.1,0.3l-0.8-1.4l-1.6,0.2c-1.9,0.2-2.8,0.1-3.7,0.8l-0.3-0.6
		l-1.8,0.2l-1.1,0.7l-0.3-0.5l-0.7,0.5v-0.4l-2.6-0.3l-0.6,0.1l0.1,0.9l1.3,0.3l1.2-0.1l1.4,0.3l1.1-0.5v0.4
		c-5.9,1.5-5.9,1.2-10,1.8l-1-0.4l-0.1,0.1l-0.8-0.8l2.2-0.3l1.4,0.4c1.7-0.8,1.8-1.2,2.8-1.2l-0.1-1c-5.8,1.2-3.5,0.4-10.8,1.1
		h-0.3l-0.1-0.9c9.4-1.2,6.3-0.5,9.5-1.4l0.3,0.5l1.3-0.7h0.7c3.3-0.3,4.4,0.3,10.9-1.5l0.1,0.4l1-0.5l1-0.1l1.9-1.2l-0.1-1
		c-11.5,2.3-14.5,1.7-17.7,2.6l-0.1-0.4c-3,0.5-3.1,0.3-3.8,0.3l-1,0.6l-0.3-0.4H473l-9.7,1.6l-0.4-0.4c-5,1.1-3.7,1.3-10.4,1.9
		l-1.2,0.5l-0.5-0.4l-4.2,0.4l-2.8,0.7l-0.5-0.4c-1.6,0.5-2.9,0.8-4.1,0.8h-0.1l-0.2-0.4l-0.8,0.5c-1.2,0.2-0.6-0.1-4.8,0
		c-7.3,0.9-6.5,1-7.3,1.1l-2.8-0.3l-0.4,0.5c-3.1-0.4-4.7-0.9-4.7-1.5c0.4-2.9,1.1-4.5,2.1-4.5l0.6-0.1l-0.5,1l0.6-0.1l1.4-1.5
		l-0.2-1l-0.9,0.1l-0.1-0.9l0.3-1.9l2.3-3.6l0.1,0.9l1.1-0.1l-0.1-0.9l-0.6-0.8l1.9-1.2l-0.1-0.5l-1.4,0.2l-0.2-1.5
		c2.9-5.9,4.3-9.4,4.2-10.4l1.1,0.4l0.9-1.1h-1l-0.1-0.4l0.4-2c1.6-1.6,2.3-3.3,2.2-4.9l0.4,0.4c1.3-0.8,2.3-2.8,3.2-6.1
		c2.3-4.3,5.7-12.8,10-25.5c8.3-22.4,8-24.8,9.2-30.2l-0.9,0.1l-0.4,1.9l-1.6-0.3l-0.1-0.4c-0.1-1.9,0.7-4.3,2.5-7h0.4l0.9,3.2
		l0.9-0.1c0-0.3,0.3-1.5,0.8-3.9l-1.2-0.8l-0.9,0.6c-0.1-1.7-0.1-3.5,0.1-5.3l-0.5,0.1l-1.3-2.1l-5.5,0.5l-0.6-1.7
		c0-0.5,1.2-1,3.7-1.4l1.1,0.4l1.1-0.7l0.6,0.5l1-0.7l0.7,0.5h0.5l-0.2-1.2c-0.7,0.1-2.8,0.1-5.9,0l-1,0.7l-0.1-0.6
		c-25.4,2.1-39.9,3.2-43.3,3.6c-0.5,0.1-2.3,0-5.4-0.1l-1.1,0.8l-1.1-0.5l-3.7,0.9c-0.8,0.1-2.3,0.1-4.4-0.2l-2.1,0.8
		c-0.4,0,5.4-0.3,10.9-0.8l-2.7,0.8l-2.2-0.3c-2.6,0.8-5.3,1.4-8,1.9l-1.2-0.5l-17.7,2.8l-2.3-0.3c-1,0.1-2.6,0.4-4.8,1l-8.6,3.6
		l0.6,1.1l1.7-0.8l3.1,0.3l-0.4,2.8c-2.8,1.3-4.4,3.1-4.8,5.4c-4.3,1.9-6.3,3.3-6.3,4l0.1,0.5h0.6l1.2-0.7l1.3,1.6l0.2,2.3
		c0.1,0.7-7,15.6-21.2,44.8c-12.3,28.1-18.8,43.4-19.3,46.2c-4.3,1.2-6.7,2.9-7.4,5.2c0.1,0.8,1.3,1.3,3.7,1.4l0.2,1.1l-1.2,1.8
		l0.3,2.2c0.1,1.2,3.2,2,9.2,2.7l0.6-0.7c0.1,1.3-0.3,4-1.1,8l0.6-0.1c2.5-3.4,3.8-5.8,3.6-7l0.5-0.1c0.7-0.1,1.2,0.7,2,2.2
		c-0.8,0.3-3.4,6.3-7.9,18.1l0.7,1.1l0.6-0.1c5.6-14.1,9.1-21.9,10.6-23.3c7.3-0.7,19.9-2,37.9-3.9l1.2-0.7l0.7,0.5l1.2-0.1l1.2-0.7
		l0.7,0.5l13.6-1.2c3.7-0.3,5.3-1.4,5.2-3.3c0-0.5,2.1-1.1,6.4-1.7l1.8,0.3c0-0.3,2.2-0.7,6.4-1.1c0.2-2.3,0.9-3.5,2.2-3.6l-0.1-1.1
		l-4.2,0.9c-1.8,0-3.7-0.3-5.4-0.7l-1.7,0.7l-9.5,0.3L379,277l-0.7-0.4h-0.5l-1.3,0.7c0-0.3-1-0.7-3-0.9l-1.3,0.8l-2.3,0.2v-0.6
		c12.2-1.3,18.3-3,18.1-5l1.3,1.1l3.6-0.9l-0.1-1.1l-29.3,0.8l-0.6,0.7l-3.6-0.3l-2.3,0.8l-1.3-0.4c-3.7,0.3-6.4,0.8-8.3,1.3
		c-2.8-0.2-5.6-0.1-8.3,0.2l-6.6,0.6l-3-0.3c-0.2-2,3.6-11.5,11.3-28.6c2.3-5.7,4.3-9.3,6.3-10.8l1.8,0.5l4.8-1.6l2.3,0.3
		c4-0.3,8.7-1.5,14.1-3.4l3,0.3l3.6-0.8l10.6-0.9c4.5-0.3,9.4-1.3,14.8-3l-0.1-1.1c-2,0.2-3-0.2-3.1-1c-0.2-1.4-1.6-2-4.3-1.8
		l-0.2-1.1l3-0.8l7.7-0.7l-0.2-1.1c-1.6,0-3.2,0-4.8-0.1l-0.1-1.2l3-0.3l1-1.2c-3.9,0.1-6-0.1-6-0.6c-27.7,1.3-41.7,1.6-41.7,0.8
		l-1.8,0.8l-0.8-1.2c7.3-15.6,11.7-23.5,12.9-23.7l-0.9,2.9v0.5l1.3-0.1c2.9-7,5.3-10.6,7.4-10.8c8.8-0.8-1.3-1.3,17.4-4.3l1.7,0.5
		c7.3-1.5,17.6-3.1,30.7-4.7l-0.1-1.1l-7,0.7l-0.1-1.1l2.1-0.8v0.6l1.7-0.8l2.8,0.3c1.9-0.5,3.8-0.9,5.8-1.2l4.3-0.4l1.5-1.8v-0.5
		l-3.8-0.3l1-1.2l8.1-0.8l3.7-1l0.5,0.6l1.6-0.8l0.7,0.1c-0.5,1-1.1,2.5-1.7,4.4l-1.1,0.1l-0.6-1.9h-0.5
		c-9.9,27.5-14.3,40.3-23.4,61.3c-1.7,5.4-3.1,8.4-4.3,9.1l1.1,0.8c0.2,2.8-0.5,5.5-1.9,7.8c-4.2,12.2-7,18.8-8.4,20l0.9,5.7l-0.9,1
		l-1,0.1c-0.2-1.6-0.8-2.3-1.7-2.3h-0.5c-1.3,2.1-2.3,4.3-2.9,7.1l1-0.1l1.7-3.1l2-0.2l1.2,0.4l-1.3,3.4l0.5,0.9l-1.2,3v0.5l3.7,1.1
		l3-1.2c1.1-0.2,5.3-0.2,12.7-0.2l3.7-1.2c4.5-0.1,5.3,0.1,9.1-0.3l1.6-0.2l0.8-0.6l0.1,0.5c4.1-0.3,4.3-0.1,7.5,0.3l0.1,0.5
		l-2.3,0.3l0.1,0.9l1.7-0.7l0.9,0.9l-3,0.7l-1-0.3c-1.6,0.4-1.3,0.6-2.3,0.7l-1.5-0.3l-0.4,0.4l1,0.9l1.6-0.2l8.3-0.8l3.2-0.7
		l0.4,0.4l1.5-0.6l2.9-0.3c2.2-0.2,2.1-0.3,6.9-1.1l0.3-0.5l0.1,0.5c7.8-1.3,8.3-1.4,9.5-1.8l0.2,0.2c1.9-0.4,0.8-0.3,1.3-0.7
		l0.3,0.5l1.4-0.2l-0.2-1l-2.8-0.1h-0.7v0.1c-1.9,0.4-2,0.2-3.2,0.3l-6.9,0.4l-0.1-0.5l3.9-0.6l1.4-0.1l0.8-0.6l0.1,0.5
		c5.4-0.4,7.3,0.9,32.7-4.4c1.3-0.2,1.3-1.3,2.1-3.7l-1.3-0.3c-2.1,0.8-3.2,0.4-7.2,1.1l-0.8-0.9v-0.4l3.8,0.1
		c0.8-0.1,2.1-0.2,4.3-1.3l-0.3,0.5L503.2,271z M316.3,274l-1.7,0.2c-0.1-0.8,0.8-3.5,2.8-8.2l1.2-0.1
		C318.7,267,317.9,269.6,316.3,274z M318.5,265.3v-0.5l1.2-1.2v0.5L318.5,265.3z M342.3,283.6v0.5l-3,0.3v-0.5L342.3,283.6z
		 M338.7,283.3c0,0.6-0.8,1.3-2.8,2l-3.7-0.3l-1.2,0.1l-0.1-1.1L338.7,283.3z M362.6,173l-1.8,0.2v-0.7l1.1-1.2l0.6-0.1l1.3,0.5
		L362.6,173L362.6,173z M389.7,167.6h0.6l0.1,1.1l-1.7,0.1L389.7,167.6z M382.9,170l-2.7-0.3l-0.1-0.5c3.6-0.3,4.8-0.7,6.9-1.3
		l1.1,0.5l0.1,1.1l-1.1,0.1l-2.2-0.3L382.9,170z M386.3,179.9l-0.1-0.5l4.4-0.4v0.5L386.3,179.9z M391,176l-0.1-0.6l2.2-0.3v0.7
		L391,176z M391.5,168.6h-0.6l0.5-1.2l4.8-0.4v0.6C394.7,167.8,393.1,168.1,391.5,168.6z M393.9,179.1l-0.1-1.1l2.2-0.2l1.1,1
		L393.9,179.1z M406.8,161.6l-2.7,0.8l-0.5,0.1c-1.3,0.1-3,0.1-4.9-0.2C402.2,162.1,405.6,161.7,406.8,161.6z M403.9,173.7v0.5
		l-3.7,0.3l-0.1-0.5L403.9,173.7z M410,176.6c0-0.4-0.8-0.8-2.3-0.9l-3.7,1.1l-2.8,0.1l-1.1-1l3.3,0.3l7.6-1.2l3.8,0.2v0.6
		C413.3,175.8,411.6,176.1,410,176.6z M448.7,166.6l0.8,0.1c1.3-1.3,2.8-2.3,4.6-3.1c-1.4,6-3.5,10.4-6.4,13.3l-2.2-1.3
		C446.8,172.7,447.8,169.7,448.7,166.6L448.7,166.6z M442.2,177.9l0.5-0.1l-1.9,2.2l-0.1-1.5L442.2,177.9z M437.9,187.9
		c1.1-4.1,2-6.4,2.9-7l0.1,0.5c-0.5,3.7-1.3,5.7-2.5,5.9l0.3,2.4l-1.3,3l-0.5,0.1l-0.3-3.3L437.9,187.9L437.9,187.9z M436.3,193.4
		l-1.2,3.9h-0.5l-0.1-1.4C435.3,194.2,435.9,193.4,436.3,193.4z M405.7,282.2v-0.4l1-0.1l0.1,1.4L405.7,282.2L405.7,282.2z
		 M449.4,283.4l-0.5-0.5l-2.5,0.3v-0.5h0.2l5.9-0.5v0.5C450.9,282.7,449.8,283,449.4,283.4L449.4,283.4z M446.5,282.1v0.3V282.1z
		 M446.8,275.3l-3.2,0.3l-0.1-0.5l3-0.3l2.6-0.6l0.5,0.3c3.1-0.5,2.8-0.7,4.3-0.8l0.8,0.9L446.8,275.3z M458.3,274.3
		c-1.8-0.2-1.9-0.3-3.3-0.2v-0.5l2.9-0.3v0.5L458.3,274.3z M458.4,273.8v-0.4l1.6-0.2l0.1,0.4L458.4,273.8z M462,273.5l-0.1-0.4
		l1.2-0.6l1.3,1.1L462,273.5z M466.5,272.9v-0.5l1.9-0.1v0.4L466.5,272.9z M469.2,272.7l0.8-1l0.6,0.8l0.3-0.5l0.5,0.9L469.2,272.7z
		 M440.6,285.1l-0.1-0.9h-0.3l0.1,0.9H440.6z M507.3,267.8l-0.3-0.5l-0.3,0.5v0.3l0.5-0.3l-0.5,0.3l-0.8,1.1l1.6-0.6h0.2l-0.1-0.9
		L507.3,267.8z M510,270h-0.3l0.1,1l2.3-0.3L510,270z M506.5,268.3L506.5,268.3L506.5,268.3z"/>
</g>
</svg>
