<?xml version="1.0" encoding="utf-8"?>
<!-- Generator: Adobe Illustrator 24.1.1, SVG Export Plug-In . SVG Version: 6.00 Build 0)  -->
<svg version="1.1" id="Layer_1" xmlns="http://www.w3.org/2000/svg" xmlns:xlink="http://www.w3.org/1999/xlink" x="0px" y="0px"
	 viewBox="0 0 512 512" style="enable-background:new 0 0 512 512;" xml:space="preserve">
<g>
	<path d="M153,434.4c-19.5-15.4-40.3-30.1-54.5-50.8c-29.9-36.5-53-78.7-68.7-123.2c-9.5-28.8-12.7-59.8-25-87.7
		c-12.8-20.1,2.2-42.2,24.3-48.6c9.8-1.9,27.2-11.2,6.2-4.5c-18.7,13.7-20.5-12.5-1.3-14.2c13.1-1.7,17.9-12.5,13.4-22.1
		c-14-9.2,34.2-19.2,9.9-33C32,23.1,92.6,17.8,77.7,48.7c-3.6,23.8,42.3-4.3,31.7,23.2c10.8,13.2,40.5,3,39.7,21.5
		c15.8,1.1,21.2,14.3,36,15.3c15.4,7,43.2,12.4,48.4,29.7c-15.2,12.1-50.5-24.8-52.2,8.5c4.6,49.2,3.4,100,21.4,146.9
		c8.6,28.4,29.2,50.8,47.9,72.9c17.8,21.7,42,36.9,66.7,49.8c21.7,10.2,45,16.9,68.6,21.2c9.5-7.3,26.4-34.5,41.3-23
		c0.7,12.8-29.6,26.9-1.4,25.5c16.5-5,28,12.8,41.7-3.2c12.5,14.8,52.2-9.5,43.2,20.9c-12.1,7.7-29.7,3.1-41.8,13.7
		c-19.9-9.9-35.8,8.9-57.9,6.6c-24.5,4.3-49.5,6.2-74.3,6.2c-40.8-3.2-82.4-4.6-121.2-18.7C193.5,459.2,172.2,446.8,153,434.4
		L153,434.4z M187.4,449.3c21.3,9.2,42.3,18.9,65.7,21.9c37.1,5.1,75.4,13.1,112.7,5.8c-16.8-7.7-34.3,3-51.1-5.5
		c-20.2,4.3-41.7-1.1-62.3-3.7c-23.2-10.3-48.4-17.5-70.3-31c-27.2-9.9,14.1,12.7,21.5,14.7c17,9.7-18.8-5-23.7-9
		c-14.2-8-16.1-6.3-1.4,1.7C181.4,445.9,184.3,447.8,187.4,449.3L187.4,449.3z M146.8,420.5c20.7,7.7-0.1-14.5-9.6-13.2
		c-4.2-7.2-16-11.9-7.7-15.7c-15.1,5.2-15.7-19.8-22.8-16.3c-15.9-5-6.2-22.7-25.1-33.7C79.9,330,62.8,320,57.3,302.6
		c-2.4-8.8-19.2-34.4-8.9-10.7c8.8,22.9,24.4,42.5,37.3,62.1c10.1,18.6,21.9,38.1,40.3,49.7C132.1,409.6,138.1,418.7,146.8,420.5z
		 M87.2,355.1C87.9,352,91,361.9,87.2,355.1z M171.5,429.7C176.1,427.7,165,427.2,171.5,429.7z M182.8,433.8
		C181.6,428.2,177.6,436.9,182.8,433.8z M196.9,439.7C203.5,433.3,186.5,435.7,196.9,439.7z M221,453.1
		C225.1,447.1,207.9,450.9,221,453.1z M174.7,420.9C185.1,414.1,161.2,420.8,174.7,420.9z M185.2,426.1
		C185,422.5,181.5,427.7,185.2,426.1z M237.9,459c8.5,5.3,49.5,11.7,23.8,2.2C257.5,462.1,214.1,448.9,237.9,459z M154.3,393.9
		C153.5,390.3,141.1,389.9,154.3,393.9z M178.8,408.1C185.2,403.7,165.5,404.7,178.8,408.1z M199.5,420.8
		C208.6,417.4,184.6,417.3,199.5,420.8z M144.3,382.9c9.9,7.7,40.1,1,15.2-4.5c-11.3-6.1-36.8-10.2-19.5,3.6L144.3,382.9z
		 M213.4,425.2C217.5,418.1,196.1,421.1,213.4,425.2z M192.4,408.4c24.3,6.9-20.4-15.3-6-2.5l3.2,1.4L192.4,408.4z M234.5,432.8
		C257.5,433,213.7,429.6,234.5,432.8z M135.5,369.6C134.6,365.4,129.8,370,135.5,369.6z M273.5,454.6
		C274,446.9,266,460.4,273.5,454.6z M174.7,393.7C173.3,389.6,167.5,393.5,174.7,393.7z M137.6,366.9
		C150.8,366.2,119.6,361.1,137.6,366.9z M93.6,338.5C92.1,332.2,79.3,327.2,93.6,338.5z M209.1,411.9
		C206.6,409,207.9,412.4,209.1,411.9z M280.8,455.8C280.6,451.7,277,457.4,280.8,455.8z M202.7,405.3
		C204,399.8,191.4,403.6,202.7,405.3z M149.2,371.3C159,370.3,133.5,364.7,149.2,371.3z M239.7,427.5
		C255,421.5,224.7,424.5,239.7,427.5z M192.6,395.6c17.7,2.2-21-12-3.9-1.2L192.6,395.6z M254,433.4c16.5-9.9,11.1,23.1,28,2.7
		c16.7-12.2-14.4,15.1,6.2,2.2c14.8-9.9,36.8,4.7,50.7,9.5c10-0.5,19.7,8.7,29.9,3.1c19.7-5.3-38.5-7.8-23.2-17.2
		c-18,5.2-31.3-6.3-40.2-17.8c-20.3-4.7-43.6-15-53.7-32.9c-4.2-6.7,5.9,1-3.6-10c-12.2-10.8-18.3-23.2-26.4-36.3
		c-9.7-5.2-10.9-20.5-11.9-0.5c0.1-12.7-11.8-21.2-14.7-17.6c-0.1-12.2,12.7-6.1,3.7-15.1c-1.9-12.7-8.3-25.8-10.2-40.1
		c-2.9-6.8-0.4-21.5-10.1-6c-3.5,16.4-1.2-20.2,4.3-8.1c7.2-12.3-2.6-10.9-3-9.2c4.7-10.4,3-25.2-1.2-19.6c2.5-11,4-40.6-3.7-35.3
		c4.7-11.5,8.8-52.7-11.3-37c-8.2,0.1-22.4,3-29.1,6.3c21,11.6-2.2,4.2-10.7,2.3c-1.1,10.7-9.6,6.1-20.2,6.2
		c16.9,2.1-8.3,17.2-18,11.4c-12.6,6,10.9,21,0.2,25.7c1.3,7-19.2-2.5-17.7,13.7c-12.2-5.2-1.7,19.2,4.4,11
		c20.8,5.6,14.7,18.4,15.2,30.7c-3.3,7.1-16.7-16.7-2.9-15.7c-10.8-17.6-12-6.3-21.1,1.8c-2.1,0.6,23.1,11.7,7.3,17.2
		c13.8,2.1,14.3,14.3,17,21.9c8.3,8.7,6.7-9.6,16.7,0.9c-6.3-9.3-33.4-26.2-11.7-20.8c-0.1-9.3-3.9-16.9,2.7-16.7
		c6.7-12-6.9,29.6,8,14.3c4.2-1.8,5.2-12,12.7,0.9c10.8,10.7,3.8,18.3-11.3,8.6c2.7,9.2,20.3,12.6,17,27c3.5,12.8,8.4,8,12.7,7.3
		c3.3,12.3,5.2,3.2,5.4-2.7c15.4,3.3,11.7,12.4,16.6,18.8c10.6,4.7-15.2-32.5,3.1-11.2c19.1,17.3,7.2,24.5-10.1,21.7
		c10.9-0.8,14.4,14.8,28,14.2c12.4,5.9,20.8,28.6-0.6,19.2c-7.4-6.7-33.7-15-12.2-2.2c19.8,9.2,35.5,14.7,54.7,26.2
		c13.6,9.7,19.6,21,24.7,23.2c-11.5,5.5-34.7-4.4-17.5-7.4c-10.7-1.9-22.7-7.3-12.5,6c8.7,7.3,30.9,6.5,34.9,7.3
		c-3.4,7.4-9.2,8,0.2,8.6C239.4,429.3,253.1,430.2,254,433.4L254,433.4z M232.8,373.4c-6.3-6.7-8-19-1.2-8.3
		C235.1,366.6,242.9,385.4,232.8,373.4z M301.9,417.3C305.8,417.1,302,420.3,301.9,417.3z M222.8,357.2
		C222.5,347.3,225.1,364.9,222.8,357.2z M215.9,348C208,332.7,226,352.4,215.9,348z M132.7,290.5C137.4,289.3,135,298.5,132.7,290.5
		z M199,326.5C201.8,315.7,202.3,335.5,199,326.5z M152.1,294C148.9,288,159,299.5,152.1,294z M192.3,306.8
		c-7.5-16.8,5.3-9.2,1.7,2.8L192.3,306.8z M123.1,260.6c-3.3-5.5-8.9-21.7-7.1-26.7c1.6,8,17.1,34.7,7.6,11
		c-10.5-19.8,12.6,6.4,15,11.4c1.1,4.9-6.5-1.3-1.4,10.2C127.8,253.4,131.6,273.8,123.1,260.6z M101.6,245.9
		C102.5,233,106.5,254.7,101.6,245.9z M111.3,249.2C115.9,239.5,119,262.7,111.3,249.2z M88.1,231.3c-8-7.9-13.7-15.2,0.3-4.9
		c5.5,0.2-12-16.6,1.3-5.3C103.9,223.6,96.7,244.1,88.1,231.3L88.1,231.3z M100.3,231C105,226.4,102.7,235.5,100.3,231z
		 M107.8,233.4C100.8,220.2,116.3,238.9,107.8,233.4z M92.9,219.1c-23.2-20.6,29.2,10.8,3.7,3.8L92.9,219.1z M159.3,257.7
		c-10.1-6-2.7-42.3,0.7-17.5c9.7-3.2-0.6,12.8,6.7,12.7C165.6,263,162.4,266.6,159.3,257.7z M183.8,272.2
		C184.8,261.3,185.9,279.7,183.8,272.2z M179.5,268C180.6,263.3,179.6,273.5,179.5,268z M97.5,212.4c-14.9-20.6,43.2,20.7,9.5,5.2
		C103.5,216.6,99.2,216.3,97.5,212.4z M144.7,237.5C143.3,220.1,147.9,240.3,144.7,237.5z M180.6,260.5
		C183.4,250.6,180.8,267,180.6,260.5z M99.7,204.5c8.8-1.9,36.7,15.5,11.1,5C108,206.4,102,207.8,99.7,204.5z M175.6,242.4
		c1-17.7,5.3-10.6,0.1,2.5L175.6,242.4z M106.3,198.4c3.6-5.2-9.6-23.9,1.9-6.7c4.9,3.9,14.3,6.6,6,8.3
		C127.3,211.5,111.1,203.1,106.3,198.4z M171.9,236.9C174.4,216.7,174.1,248.6,171.9,236.9z M98.8,179.8
		C101.6,178.6,100.2,183.5,98.8,179.8z M115.9,190C120.3,180.7,124,200.3,115.9,190z M164.1,216.9C164.1,213.3,165,222,164.1,216.9z
		 M161.4,210.6C154.7,194.1,167.7,219.4,161.4,210.6z M157.2,199.8C156.1,193,161.1,208.4,157.2,199.8z M164,188.9
		c-4.6-8.1,5.8-35.7,6.9-18.6c-4.8,13.3-1.3,20.8,2,2.9C179.1,159.1,171.5,201.1,164,188.9z M170.8,147.9
		C172.8,145.4,171.3,150.8,170.8,147.9z M159.4,374.3C156.6,371.9,159.7,375.8,159.4,374.3z M183.1,386.2c13.1,3.4,13.1-2,1.2-3.6
		c-6.4-6-26.6-12.3-8.5-0.8C176.9,384.9,180.7,384.8,183.1,386.2L183.1,386.2z M136.3,355.2c7.2,5.4,27.2,15.3,10.2,2
		c5.7-6.6-10.9-10.2-5.4-14.6c-14-8.7-11.1-7.8-1.2-7.6c-17-7.6,2.4-7,1.5-10.9c-6.6-1.2-32.4-11.5-17.2,0.8
		c-15.5-7.8-3.7,3-8.4,1.8c-15.8-4.3,14.1,12.1-2.5,8c9.1,7.2,24.5,18.4,3.8,7.6C114.5,346.3,132,352.2,136.3,355.2L136.3,355.2z
		 M161.1,369.4C191.1,379.1,146.3,357.5,161.1,369.4z M287.7,446.2C288.1,440.2,283.6,451.3,287.7,446.2z M300.8,451.7
		c6.9-6.7,0.3,10.7,11.5-1.7c0.1-8.8-0.3-14.1-12.9-3.3C295.9,448.6,294.4,456.8,300.8,451.7L300.8,451.7z M94,321.8
		C91.9,313.4,79.1,313.4,94,321.8z M107.9,331C102.7,322.4,89.5,323.2,107.9,331z M187.1,378.7c7.7,6.8,35.5,5,9.4,0.8
		C192.6,373.8,171.9,375.2,187.1,378.7z M295.8,445.8C307.7,435.8,284.3,450.3,295.8,445.8z M320.5,462.8
		C320.6,459.6,315.4,464.2,320.5,462.8z M320.5,458.4C333.7,444.4,307.8,459.2,320.5,458.4z M59.8,293.2c-11.2-16-7-23.2-17.8-36.2
		c-2-10.1-18.5-32.8-8.5-8.7C42.7,262.3,45.4,284,59.8,293.2L59.8,293.2z M316.5,453.8C340.7,438.3,306.5,447.1,316.5,453.8z
		 M335,461.1C347.1,450.8,327.3,459,335,461.1z M89.9,304.1C93.4,299,81,303.4,89.9,304.1z M331,456.2c11.7-7.6-2.7-6.4-2.1,0.7
		L331,456.2z M171.7,355.7C171.3,350.6,165.5,356.1,171.7,355.7z M181.5,361.4C178.4,355,176.7,362.4,181.5,361.4z M350,461.4
		c15-10.9-9.2-2.2-3.2,2L350,461.4z M344.2,458.5C356.5,448.3,331.2,463.1,344.2,458.5z M373.6,478.1
		C381.9,472.6,363.6,476.4,373.6,478.1z M97.5,300.4c11,2.5,44.1,27.2,24.6,1.7c-10-3-4-27.4-14.3-23.1c6.8,11.4,5.7,16.3-8.7,9.1
		c-18.1-8.7-10.2,4.4-6.7,8C87.7,297.2,98.9,300.3,97.5,300.4L97.5,300.4z M47.2,260.7c1.9-8.2-18.2-44.9-9.6-18.4
		C40.8,247.8,40.5,258.4,47.2,260.7z M139.4,317.6C133.7,312.9,139.1,316.9,139.4,317.6z M153.4,320.9
		C153.4,312.2,138,317.4,153.4,320.9z M274.6,397.3C272.3,391.4,265.5,397.1,274.6,397.3z M280.5,401.5
		C279.6,398.2,277.1,402.1,280.5,401.5z M328.5,431.8C333.1,428.3,322.8,431.4,328.5,431.8z M72.3,267.1
		C85.6,262,58.2,263.5,72.3,267.1z M264,387.9C263.8,379.3,255.5,390,264,387.9z M67.1,255C75.6,252,59.2,253,67.1,255z M91.7,266.9
		C91.6,264,89.1,268,91.7,266.9z M392.3,451.2c10.9-2.2,35.8,5.6,39.8-2.9c-13.2-0.3-45.9-9.3-47.4,2.2l2.9,0.5L392.3,451.2z
		 M99.6,268.9C99.7,260.2,92.8,268.5,99.6,268.9z M34.7,223.9C31.8,207.4,23.6,221.4,34.7,223.9z M50.2,227.8
		C50.4,222.5,36.1,223,50.2,227.8z M59.1,232.1C56.5,230,57.1,234.7,59.1,232.1z M114.5,267.7C117.2,265.4,108.4,266,114.5,267.7z
		 M53.1,222.4C51.6,209.9,35.2,220.5,53.1,222.4z M21.5,201.8C21.1,196,18.4,204,21.5,201.8z M26.1,198.2
		C25.4,191.4,22.1,199,26.1,198.2z M52.2,213.8c11-4.3-20.1-9-2.2-0.8L52.2,213.8z M400.6,428.9
		C407.7,422.5,391.7,426.9,400.6,428.9z M442.8,450.8C445.5,442.4,435.6,451.9,442.8,450.8z M54.9,200.1
		C56.1,192,46.1,201.7,54.9,200.1z M17.8,175.3c-2-11.4-1.7-31.4,17.3-24.7c-25.4,5.1,17.6,31.6,12.2,10.7
		c10.7,0.5,20.9-6.3,15.2,4.1c21.1-2.3,35.7-20.6,56-18.1c15.8-2.1,33.2-3.7,50.3-10c14-1.1,27.5-16.2,19.8-25.1
		c-19.2-1.7-39.2,0.8-60.3,4.9c-23.4,4.9-44.7,14.2-68.3,18.2c-23.1,3.1,4.6,8.5-2,9.7c-12,4.2,14.3,7-1.6,11.3
		c-9.7-1.8-20-5.2-15.8-15.6c-22.1,2.8-41.5,12.1-24,34.5L17.8,175.3z M71.1,148.2c5.2-19.1,27.7,15.7,8.5,2.5
		C77.2,149,73.5,147.6,71.1,148.2z M72.1,139C79.5,133.5,76,142.1,72.1,139z M81.6,139.1c0.7-8.7,21.7,4.7,3.4,3.2L81.6,139.1z
		 M94.5,133.9C99.2,128.4,95.9,138.9,94.5,133.9z M97.8,131.7c7.9-9.5,44.7-6.1,17.7-0.9C108.4,125.4,102.8,134,97.8,131.7z
		 M145.9,124.3C144.6,98.4,169.7,133.5,145.9,124.3z M159.5,124.2c5-13.1,19.3-5.2,2.3-2.7C162.1,123,161.3,128.3,159.5,124.2z
		 M49.5,193.5C64.4,184.3,33.7,185.5,49.5,193.5z M60.5,196.5C65.7,191,49.1,194.2,60.5,196.5z M28.1,173.5
		C36.6,167,18.1,171,28.1,173.5z M467.6,448.4C467.9,440.9,461.1,451.9,467.6,448.4z M423,418C424.2,409.2,417.2,418.7,423,418z
		 M479.9,451.4c11.9,0,36-3.7,10.2-3.7C485.9,448.4,466.4,448.2,479.9,451.4z M70.1,191.1c9.7-0.7,15.1-10.6-1.8-10
		c-26.3-2.7,23.1,8.9-3.3,5.6C61.4,189.1,70,191.8,70.1,191.1z M78.6,195.5C77.6,189.2,75.6,198.7,78.6,195.5z M88.6,168.6
		C92.9,163.5,82.9,167.2,88.6,168.6z M56.7,115.1c17.2-5.8,40.7-12.4,48.8,2.8c-8.3-9.9-3.3-19.7,4.5-5.2c11,14.7,16.5-6.7,9.3-11.6
		c8.2,10.2,17.4,14.9,5.5,0.6c13-15.6-26.1,2.1-35,1.9C85.5,105.6,45.6,113.9,56.7,115.1L56.7,115.1z M66.7,95.9
		c9.8-7.4,33.9,4.3,18.4-7.4C83.7,87.2,51.3,97.4,66.7,95.9z M102.5,97.3c11.5,0.3-4.9-15.3,8.7-8.3c-2.2-7.3-15.9-8.7-22.7-11.7
		C84.8,84.1,96.3,97.4,102.5,97.3z M73.1,64.9C77,59.6,66.1,67.6,73.1,64.9z M87.6,68.4c18.4-2.4-4.8-7.9-3.7-0.2L87.6,68.4z
		 M60.4,47.1c-13-17,24.4,2.9,11.2-14.9C60.5,23.3,49.8,42.1,60.4,47.1z M227.3,137c6-10.6-24.7-14.3-4-3.7
		C225.2,133.9,224.7,137.7,227.3,137z"/>
</g>
</svg>
