<?xml version="1.0" encoding="utf-8"?>
<!-- Generator: Adobe Illustrator 24.1.1, SVG Export Plug-In . SVG Version: 6.00 Build 0)  -->
<svg version="1.1" id="Layer_1" xmlns="http://www.w3.org/2000/svg" xmlns:xlink="http://www.w3.org/1999/xlink" x="0px" y="0px"
	 viewBox="0 0 512 512" style="enable-background:new 0 0 512 512;" xml:space="preserve">
<g>
	<path d="M474.7,252.1c0-30.2-20.4-56.6-49.7-64.2L488.7,0H172.9l63.9,188.6c-28.3,8.2-47.9,34.2-47.9,63.7c0,22.2,11.1,42,28,54.2
		c-6.7,9.6-14.5,18.4-23.1,26.5c-15.7,15-34.3,26.9-54.4,35.2c-17.8-12-25.5-33.3-18.6-52.2c72.5-22.6,56.5-129.4-19.3-129.7
		c-36.7,0.1-66.4,29.7-66.4,66.4c0,18.1,7.3,34.7,19.2,46.6c-1.1,2-2.1,4.2-3.2,6.3C41.3,326,30,349.1,25.7,375
		c-8.6,51.9,5.5,93.6,39.5,117.2c18.3,12.9,40.3,19.9,62.8,19.8c38.9,0,78.5-19.6,116.8-38.6c27.3-13.4,55.5-27.5,83.1-34.3
		c10.3-2.5,20.9-4,32.2-5.7c22.8-3.2,46.4-6.7,67.6-19c24.5-14,41.6-38.2,46.6-65.9c3.7-21.2,0-42.5-9.5-61.2
		C471.2,277,474.7,265.1,474.7,252.1L474.7,252.1z M445.8,252.1c0,20.6-16.8,37.3-37.3,37.3c-35.3-0.1-50.8-44.7-23.1-66.7l0.1-0.1
		l3.8-2.7l0.3-0.1l1.7-1.1l0.4-0.1l2.1-0.9l2.1-0.9l0.4-0.1l1.8-0.6l0.6-0.2l2.1-0.4h0.1l2.2-0.5l0.6-0.2l1.8-0.2h0.7l2.4-0.1h1.9
		l1.7,0.1h0.2l3.6,0.7C433.3,219.1,445.7,234.4,445.8,252.1L445.8,252.1z M214.3,29.7h233.1l-53.5,157.8c-2.3,0.4-4.4,1.2-6.7,1.9
		L330.9,74.6l-56.5,114.1c-2.2-0.7-4.6-1.2-7-1.6L214.3,29.7z M320.3,239.2c-2.7-13.7-9.7-26.2-20-35.6l30.7-61.9l31,63.2
		c-9.3,9.2-15.9,20.9-18.6,34.3H320.3z M246,215.8l2.1-0.4h0.4l1.7-0.3h0.6l1.7-0.2h5.7l1.5,0.2l0.8,0.2l1.6,0.2l0.6,0.1l2,0.4h0.2
		l1.8,0.7l0.6,0.1l1.5,0.6l0.4,0.2l1.7,0.7h0.2l1.9,1.1h0.2l1.7,1l0.3,0.2l1.6,1l0.2,0.2c1.7,1.3,3.4,2.8,5.1,4.3l0.1,0.1
		c6.7,7,10.4,16.2,10.3,25.8c-1.6,48.2-73.1,48.2-74.7,0C217.8,234.9,229.5,220,246,215.8L246,215.8z M100.1,214.7
		c20.6,0,37.3,16.8,37.3,37.4c0,20.6-16.7,37.3-37.3,37.3c-20.6,0-37.3-16.7-37.3-37.3C62.8,231.6,79.5,214.7,100.1,214.7z
		 M444.9,343.3c-3.4,19.1-15.2,35.8-32.1,45.5c-16.2,9.3-36.1,12.3-56.9,15.2c-11.8,1.5-23.5,3.6-35,6.3
		c-30.8,7.6-60.5,22.3-89.3,36.6c-36.7,18.2-71.4,35.4-103.6,35.4c-16.5,0.1-32.6-5-46-14.7c-32.6-22.5-31-64.7-27.1-87.9
		c3.5-21.7,13.4-41.9,22.9-61.3l1.7-3.4c3.2,1.1,6.7,2.1,10.2,2.7c-5.7,31.4,10.3,63.9,41.5,79.9l5.6,2.9l6.1-2.2
		c25.9-9.3,50-24.2,71.2-44.2c11.8-10.9,22.1-23.2,30.8-36.7c3.4,0.6,6.8,0.8,10.3,0.8c30.2-0.1,56.5-20.4,64.2-49.7h24.9
		c7.6,29.2,34,49.7,64.2,49.7c12.3,0,23.7-3.4,33.5-9.2C445.8,320.2,447,331.8,444.9,343.3L444.9,343.3z"/>
</g>
</svg>
