<?xml version="1.0" encoding="utf-8"?>
<!-- Generator: Adobe Illustrator 24.1.1, SVG Export Plug-In . SVG Version: 6.00 Build 0)  -->
<svg version="1.1" id="Layer_1" xmlns="http://www.w3.org/2000/svg" xmlns:xlink="http://www.w3.org/1999/xlink" x="0px" y="0px"
	 viewBox="0 0 512 512" style="enable-background:new 0 0 512 512;" xml:space="preserve">
<g>
	<path d="M32.6,125.2c-45.4,65.2-39.7,149.9-5.1,219c0.8,1.7,1.7,3.3,2.5,4.9l1.7,3.2l1,1.7l1.7,3.3l3.3,5.7l1.9,3.1
		c1.2,2,2.6,4,3.7,6l1.7,2.5c2.1,3.2,4.3,6.4,6.7,9.5c1.7,2.3,3.3,4.5,5.1,6.8l1.8,2.4l4.8,5.7l1.7,2.1c2.1,2.5,4.3,5,6.5,7.4
		l0.1,0.2c2.8,3.4,5.7,6.6,9.1,9.4c1.8,1.7,3.4,3.5,5.3,5.2l2.2,2.1c2.3,2.3,4.7,4.4,7.2,6.6l0.2,0.1l1.2,1c2.2,1.9,4.4,3.8,6.7,5.6
		l2.7,2.3c1.7,1.4,3.7,2.8,5.5,4.3l2.9,2.3c2,1.5,4.1,2.9,6.1,4.4l2.3,1.5l0.6,0.5l6,4l2.6,1.7c3.1,2,6.3,3.9,9.3,5.9l2.6,1.4
		c2.3,1.3,4.8,2.7,7.1,3.9l3.9,2c1.6,0.9,3.3,1.7,4.9,2.7l1.2,0.5l2,1c2.6,1.3,5.3,2.5,8,3.7l1.7,0.8c3.1,1.3,6.1,2.7,9.3,3.9
		l2.2,0.8c2.9,1.1,5.9,2.2,8.8,3.2l1,0.3c3.3,1.2,6.5,2.2,9.9,3.3l2.3,0.7c3.4,1.1,6.7,2.3,10.1,2.9
		c219.2,40,282.9-131.8,282.9-131.8c-53.5,69.7-148.4,88-238.4,67.6c-3.3-0.8-6.6-1.8-10-2.8c-4-1.2-8.1-2.5-12.1-3.8l-1.3-0.5
		c-2.8-1-5.7-2.1-8.5-3.2l-2.3-0.9c-3.2-1.3-6.2-2.5-9.3-3.8l-1.8-0.8c-2.6-1.2-5.2-2.3-7.8-3.6l-2.3-1.2c-2-0.9-4-2-6-3l-3.9-2
		c-2.4-1.3-4.8-2.7-7.3-4l-2.4-1.4c-3.2-1.9-6.3-3.8-9.3-5.7l-2.5-1.7c-2.3-1.4-4.5-2.9-6.7-4.4l-2.2-1.6c-2.2-1.4-4.3-2.9-6.3-4.5
		l-2.8-2.2c-1.8-1.4-3.7-2.8-5.6-4.4l-2.6-2c-2.4-1.9-4.8-3.9-7.1-6l-0.8-0.7l-7.3-6.7l-2.2-2c-1.7-1.8-3.5-3.5-5.3-5.3l-2.1-2.2
		c-2.3-2.3-4.4-4.5-6.6-6.9l-0.3-0.3c-2.3-2.4-4.4-5-6.7-7.5l-1.7-2.1l-4.8-5.9c-2.5-3.2-4.9-6.3-7.3-9.6
		c-49.9-68.1-67.9-162-28-239.1L32.6,125.2z M173.2,70.3c-32.9,47.2-31,110.3-5.4,160.2c4.3,8.3,9.1,16.4,14.4,24.2
		c4.9,7,10.3,15.3,16.9,21c2.3,2.6,4.8,5.1,7.3,7.7l1.9,1.9c2.4,2.3,4.9,4.7,7.5,6.9l0.3,0.3c2.8,2.5,5.7,4.9,8.8,7.3l2,1.6
		c3,2.3,6,4.5,9.1,6.7l0.3,0.3c1.3,0.9,2.8,1.8,4.3,2.8l1.9,1.3c2.3,1.5,4.5,2.8,6.8,4.3l1,0.5c1.9,1.2,4.1,2.3,6.1,3.3l2.1,1.2
		l4.2,2.2l0.8,0.3c2.8,1.4,5.7,2.8,8.7,4.1l2,0.8c2.3,1,4.8,2,7.1,2.9l3.1,1.1c2.2,0.8,4.5,1.6,6.7,2.3l2.9,0.9
		c3.2,1,6.3,2.3,9.6,2.8C472.9,367,512,236.8,512,236.8c-35.3,50.7-103.5,74.9-176.2,56.1c-3.2-0.8-6.4-1.8-9.6-2.8l-2.9-0.8
		c-2.2-0.8-4.5-1.6-6.6-2.3l-3.1-1.2c-2.4-1-4.8-1.8-7.2-2.9l-1.9-0.8c-3-1.3-6-2.7-8.9-4.1l-4.4-2.3l-2.5-1.3c-2-1-3.8-2.1-5.7-3.2
		l-1.3-0.8c-2.3-1.4-4.6-2.8-6.8-4.3l-2.1-1.3l-4.4-2.8c-3.1-2.2-6.1-4.5-9.2-6.7l-2-1.7c-32-25.2-57.2-59.6-69.2-98.5
		c-12.6-40.5-9.8-85.9,11.9-122.7L173.2,70.3z M291.5,29.3c-19.4,28.5-21.3,63.8-7.9,95.2c14.2,33.3,43.2,59.5,77,71.8l4.2,1.5
		l1.8,0.6c2,0.6,4,1.3,6,1.8c93.4,18,118.7-48.1,125.6-57.7c-22.3,32-59.6,39.6-105.4,28.5c-3.7-1-7.3-2.1-11-3.4
		c-4.4-1.6-8.8-3.4-13.2-5.4c-8.1-4-15.9-8.7-23-14.1C304.5,117,279.2,57.7,306,9.4L291.5,29.3z"/>
</g>
</svg>
